<?xml version="1.0" encoding="utf-8"?>
<!-- Generator: Adobe Illustrator 22.0.1, SVG Export Plug-In . SVG Version: 6.00 Build 0)  -->
<svg version="1.1" id="Layer_1" xmlns="http://www.w3.org/2000/svg" xmlns:xlink="http://www.w3.org/1999/xlink" x="0px" y="0px"
	 viewBox="0 0 1600 600" style="enable-background:new 0 0 1600 600;" xml:space="preserve">
<style type="text/css">
	.st0{fill:#BE0620;}
	.st1{fill:#FFFFFF;}
</style>
<g>
	<path class="st0" d="M780,7h-49h-49l-0.2,231.3c-0.3,225.7-0.3,231.3-2.2,235.1c-5.7,11.5-19.8,18.2-46.6,22.3
		c-9,1.3-18.1,1.7-41.5,1.7c-26.9,0-31.3-0.2-42.7-2.2c-21-3.8-33.6-8.9-41.7-17c-2.8-2.9-5.1-6.3-5.9-8.8
		c-0.9-3.2-1.2-55.6-1.2-233.3V7h-49h-49v232.4c0,156.1,0.3,235,1,240.3c6.2,45.8,39.3,84,88.9,102.3c11.7,4.3,34.8,9.7,48.6,11.4
		c6.6,0.9,13.4,1.7,15,1.9c1.7,0.2,17,0.5,34,0.5c22.5,0.2,34.7-0.2,44.5-1.4c26.5-3,52.1-9.7,70.5-18.3c19.2-9,40.6-26.2,52.6-42.1
		c6.2-8.3,14-23.4,17.3-33.5c5.9-18.4,5.6-4.4,5.6-259.6V7z"/>
	<path class="st0" d="M1043.5,599c2.2-0.5,8.1-1.4,13-2c28.2-3.8,58.8-15.2,80.8-30.2c11.1-7.6,29.2-25.2,37.5-36.6
		c24.6-33.5,35.1-72.5,31.3-116.2c-5.6-63.6-37.5-110.2-96.4-141c-22.9-12-47.1-20.6-88.2-31.5c-30.1-7.9-43-12.2-55.3-18.3
		c-17-8.4-26.3-18.2-31.3-32.9c-2.1-6.1-2.4-8.5-2.4-22.8c0.1-15.3,0.2-16.4,3.3-25.6c5.6-16.8,13.4-26.2,27.6-33.2
		c36.2-18,96.4-16.4,116.9,3.2c7,6.6,7.2,7.4,6.9,27.7l-0.2,18.2l45.7,0.7c25.2,0.4,47.4,0.8,49.3,0.8l3.5,0.2l0.3-20
		c0.3-23-1.1-34.5-5.9-48.9c-15.4-46.2-62.5-79.3-125.3-88.1c-6.1-0.9-11.2-1.8-11.5-2c-0.2-0.3,125-0.5,278.3-0.5H800H497.7
		c273.7,0,497.4,0.2,497.2,0.5c-0.3,0.2-5.2,1.1-11,1.9C940.3,8.5,904,24.9,879.5,49.5c-29,29-45.6,72-45.5,118.3
		c0.1,51.2,20.5,95.3,56.4,122.1c25.7,19.1,52.4,30.3,106.6,44.6c25.3,6.7,38.2,11.1,52.9,18.1c14.6,6.9,25.9,14.5,34.7,23.1
		c16.2,15.8,23.5,33.2,23.7,56.3c0.1,17.8-5.2,32.1-16.4,44.4c-13.3,14.4-31,23.6-53.9,27.7c-22.1,4-63.2-0.8-80.9-9.4
		c-11-5.4-21.4-16.4-24.2-25.9c-0.5-1.8-1.4-10.5-1.9-19.2c-0.6-8.8-1.3-16.3-1.7-16.7c-0.5-0.4-22.1-1-48-1.4l-47.3-0.7v21.3
		c0,14.2,0.5,24.5,1.5,30.6c4.2,26,15.6,47.6,35.4,67.3c27,26.9,62.8,42.1,113.1,48c5.2,0.6,9.6,1.3,9.9,1.5
		c0.2,0.3-223.3,0.5-496.7,0.5H800h800l-280.2-0.1C1165.6,599.8,1041.3,599.4,1043.5,599z"/>
	<path class="st0" d="M97.7,592l0.6-71.2c0.4-39.2,0.7-93.5,0.7-120.5V351h102h102v-49.5V252H201H99v-60.7c0-64.4,0.1-65.7,4.8-75
		c1.2-2.3,3.7-5.3,5.5-6.7c7.4-5.7,5.4-5.6,123.4-5.6H341V55V6H215.6c-84.5,0-128,0.4-133.2,1.1C42.7,12.6,11.8,41.2,2.6,80.9
		c-0.8,3.4-1.7,6.6-2,6.9C0.3,88.1,0,68.5,0,44.2V300v292h48.8H97.7z"/>
	<path class="st0" d="M1599.8,2.7l-0.3,2.8l-169.3,0.3L1261,6l0.2,237.3l0.3,237.2l2.7,9.8c11.6,41.8,43.8,72.8,92.9,89.1
		c26.9,9,46.7,11.6,88.4,11.6c15.5,0,56.6,0.3,91.3,0.7l63.2,0.6V300v-51h-120.5H1359v-72.5V104l120.3,0.2l120.2,0.3l0.3,72.3
		l0.2,72.2V0.9L1599.8,2.7z M1479.2,348.2l120.3,0.3v72v72l-87,0.1c-47.8,0.1-90.4-0.2-94.5-0.6c-27.9-2.7-52.3-13.3-57.3-24.8
		c-0.7-1.9-1.2-20.5-1.5-61l-0.4-58.2L1479.2,348.2z"/>
	<polygon class="st1" points="1600.1,0 1600,0 1600,0.9 	"/>
</g>
</svg>
