<?xml version="1.0" standalone="no"?>
<!DOCTYPE svg PUBLIC "-//W3C//DTD SVG 20010904//EN"
 "http://www.w3.org/TR/2001/REC-SVG-20010904/DTD/svg10.dtd">
<svg version="1.0" xmlns="http://www.w3.org/2000/svg"
 width="612.000000pt" height="612.000000pt" viewBox="0 0 612.000000 612.000000"
 preserveAspectRatio="xMidYMid meet">
<metadata>
Created by potrace 1.11, written by Peter Selinger 2001-2013
</metadata>
<g transform="translate(0.000000,612.000000) scale(0.100000,-0.100000)"
fill="#000000" stroke="none">
<path d="M1215 4884 c-11 -3 -55 -12 -99 -20 -255 -49 -482 -168 -661 -348
-107 -107 -166 -188 -228 -311 -91 -179 -136 -367 -135 -565 1 -584 377 -1059
955 -1206 147 -37 349 -49 513 -30 123 15 322 76 439 136 50 25 188 117 196
130 3 5 10 10 14 10 5 0 8 -324 9 -721 0 -396 2 -722 5 -725 4 -4 525 -7 672
-5 l30 1 0 405 c-1 223 0 405 1 405 2 0 118 -163 289 -408 l148 -212 19 27
c11 16 64 93 118 173 54 80 140 207 192 282 l93 137 3 -405 c2 -376 3 -404 20
-405 20 0 637 0 667 1 20 0 20 5 20 556 0 305 2 558 5 562 3 4 156 7 340 8
361 0 430 5 558 35 340 79 559 294 618 606 17 92 15 270 -5 343 -24 89 -35
119 -67 180 -66 126 -162 226 -289 301 -52 30 -184 85 -226 93 -13 2 -44 9
-69 15 -89 20 -180 24 -520 25 l-345 0 -5 -364 -5 -365 -397 -1 c-219 0 -399
-2 -401 -5 -5 -5 -72 -126 -122 -219 -166 -312 -200 -369 -212 -358 -7 6 -13
14 -13 19 0 5 -61 115 -135 244 -74 130 -135 238 -135 240 0 3 -11 22 -25 43
l-24 37 -203 -1 c-112 -1 -206 0 -209 2 -4 2 4 41 16 86 34 121 36 139 40 303
5 229 -24 372 -115 568 -128 276 -383 509 -683 621 -164 61 -259 78 -457 81
-96 2 -184 1 -195 -1z m293 -825 c185 -60 286 -212 283 -428 -4 -241 -160
-407 -391 -415 -129 -5 -229 32 -311 114 -107 107 -147 275 -105 440 39 152
147 260 291 293 69 16 178 14 233 -4z m3773 -633 c73 -20 131 -64 165 -122 38
-65 46 -187 16 -254 -36 -82 -108 -138 -206 -160 -38 -8 -154 -15 -202 -11 -8
1 -10 84 -9 284 1 155 3 283 3 284 8 8 191 -8 233 -21z"/>
</g>
</svg>
