<?xml version="1.0" encoding="utf-8"?>
<!-- Generator: Adobe Illustrator 22.0.1, SVG Export Plug-In . SVG Version: 6.00 Build 0)  -->
<svg version="1.1" id="Layer_1" xmlns="http://www.w3.org/2000/svg" xmlns:xlink="http://www.w3.org/1999/xlink" x="0px" y="0px"
	 viewBox="0 0 612 396" style="enable-background:new 0 0 612 396;" xml:space="preserve">
<style type="text/css">
	.Arched_x0020_Green{fill:url(#SVGID_1_);stroke:#FFFFFF;stroke-width:0.25;stroke-miterlimit:1;}
	.st0{fill:#EE3425;}
</style>
<linearGradient id="SVGID_1_" gradientUnits="userSpaceOnUse" x1="0" y1="0" x2="0.7071" y2="-0.7071">
	<stop  offset="0" style="stop-color:#20AC4B"/>
	<stop  offset="0.9831" style="stop-color:#19361A"/>
</linearGradient>
<path class="st0" d="M602.8,186.2c0-40.7-31.5-77.6-92.6-77.6h-61.4v73.1h-80.1l-32.4,59.6l-33.9-59.6h-42.5
	c4.8-13.4,7.2-27.5,7.2-41.9v-0.6c0-33.7-13.1-65-36.9-88.2c-23.9-23.4-56.6-36.2-91.9-36.2c-35.3,0-68.1,13-92.2,36.5
	C34.5,62.6,25.3,76,18.9,91c-6.6,15.4-9.9,31.8-9.9,48.7v0.6c0,33.7,13.1,65,36.9,88.2c23.9,23.4,56.9,36.2,92.3,36.2
	c31.4,0,60.5-10.3,83.6-29.2v145.7h70.6v-81.9l44,62.8l42.5-62.8v81.9h70.6V268.5h59.1c61.4,0,94.5-34.1,94.5-80L602.8,186.2z
	 M179.3,140.4c0,21.8-14.1,42.3-40.9,42.3c-27.2,0-41.8-20.4-41.8-42.9v-0.6c0-21.8,14.5-42.9,41.6-42.9c27,0,41.2,20.7,41.2,43.5
	V140.4z M548.3,188c0,19.6-15.3,28.2-33.5,28.2h-10.5v-56.8h10.3c18.3,0,33.6,8.6,33.6,28.2V188z"/>
<rect x="735" y="407.5" style="fill:none;" width="415" height="79"/>
<text transform="matrix(1 0 0 1 735 418.1982)"><tspan x="0" y="0" style="fill:#3D1A52; font-family:'InterFace-Bold'; font-size:16px;">RGB MASTER LOGO </tspan><tspan x="0" y="19.2" style="fill:#3D1A52; font-family:'InterFace-Bold'; font-size:16px;">R 61 / G 17 / B 82</tspan><tspan x="0" y="38.4" style="fill:#3D1A52; font-family:'InterFace-Bold'; font-size:16px;">#3D1152</tspan></text>
</svg>
