<?xml version="1.0" standalone="no"?>
<!DOCTYPE svg PUBLIC "-//W3C//DTD SVG 20010904//EN"
 "http://www.w3.org/TR/2001/REC-SVG-20010904/DTD/svg10.dtd">
<svg version="1.0" xmlns="http://www.w3.org/2000/svg"
 width="595.000000pt" height="595.000000pt" viewBox="0 0 595.000000 595.000000"
 preserveAspectRatio="xMidYMid meet">
<metadata>
Created by potrace 1.11, written by Peter Selinger 2001-2013
</metadata>
<g transform="translate(0.000000,595.000000) scale(0.100000,-0.100000)"
fill="#000000" stroke="none">
<path d="M1368 3239 c-29 -16 -23 -67 8 -81 33 -15 58 -1 62 38 5 43 -32 66
-70 43z"/>
<path d="M3863 3243 c-18 -7 -16 -50 2 -57 36 -13 65 23 39 49 -16 16 -21 17
-41 8z"/>
<path d="M165 3217 c-157 -88 -145 -329 20 -392 146 -56 302 58 290 212 -5 69
-42 134 -97 171 -57 37 -155 41 -213 9z m171 -74 c108 -71 57 -255 -71 -255
-126 0 -182 159 -87 245 40 36 111 41 158 10z"/>
<path d="M3765 3155 l2 -84 -29 24 c-123 104 -297 -36 -233 -188 38 -91 150
-124 227 -67 34 25 38 25 38 0 0 -13 7 -20 18 -20 18 0 19 13 19 210 0 209 0
210 -22 210 -21 0 -22 -4 -20 -85z m-56 -81 c102 -60 59 -224 -59 -224 -45 0
-85 24 -104 64 -27 57 -17 107 30 151 32 30 91 34 133 9z"/>
<path d="M4442 3227 c-147 -54 -190 -245 -78 -352 130 -126 354 -63 370 104
l4 40 -89 -1 c-84 -1 -89 -2 -89 -22 0 -20 5 -21 65 -20 62 1 65 0 59 -20 -26
-91 -142 -133 -240 -86 -94 46 -128 162 -72 247 57 87 179 107 271 46 38 -26
45 -28 57 -15 12 13 10 18 -16 38 -61 49 -169 67 -242 41z"/>
<path d="M2719 3228 c-1 -5 -2 -11 -3 -15 -1 -5 -6 -37 -11 -73 -5 -36 -9 -67
-10 -70 -1 -3 -5 -32 -9 -65 -4 -32 -9 -66 -11 -75 -17 -97 -17 -110 4 -110
12 0 21 3 21 8 0 4 4 34 10 67 5 33 12 83 15 110 14 115 11 117 88 -40 39 -80
74 -145 78 -145 3 0 37 63 75 140 37 77 72 140 76 140 5 0 8 -6 7 -12 -2 -11
13 -135 26 -213 2 -11 4 -28 4 -37 1 -11 9 -18 22 -18 19 0 20 4 15 48 -4 26
-8 58 -11 72 -5 28 -9 59 -25 180 -6 47 -13 92 -16 100 -4 9 -39 -53 -89 -155
l-82 -170 -86 170 c-47 94 -87 167 -88 163z"/>
<path d="M531 3120 c-10 -5 -13 -44 -13 -141 1 -74 1 -140 1 -146 1 -8 16 -13
39 -13 l37 0 1 83 c0 45 3 94 7 109 14 54 90 63 103 12 4 -14 7 -66 7 -115 l1
-89 38 0 38 0 1 90 c1 50 2 94 3 100 3 21 37 50 60 50 43 0 56 -33 56 -142 l0
-98 38 0 38 0 -1 126 c-2 123 -3 126 -31 155 -22 23 -36 29 -69 29 -37 0 -80
-19 -97 -44 -4 -6 -14 -1 -25 13 -25 31 -89 39 -133 16 -23 -12 -35 -14 -40
-6 -9 15 -43 21 -59 11z"/>
<path d="M1048 3123 c-16 -4 -18 -20 -18 -154 l0 -149 40 0 40 0 0 91 c0 113
16 148 66 149 37 0 47 -25 50 -128 1 -53 3 -101 3 -105 1 -5 17 -7 38 -5 l36
3 0 95 c0 135 -7 167 -46 190 -39 24 -85 26 -116 4 -17 -12 -25 -13 -30 -5 -8
13 -38 19 -63 14z"/>
<path d="M1359 3125 c0 0 -2 -69 -2 -153 l-2 -153 40 3 39 3 -1 140 c-1 77 -2
145 -2 150 -1 6 -17 10 -36 10 -19 0 -35 0 -36 0z"/>
<path d="M1562 3113 c-18 -9 -45 -32 -60 -51 -37 -48 -38 -132 -3 -181 57 -80
186 -91 263 -23 16 14 16 16 -8 34 -23 19 -27 19 -65 4 -54 -22 -72 -20 -108
10 -49 41 -41 112 16 142 30 17 74 15 101 -3 19 -14 25 -14 53 0 30 16 30 17
12 37 -42 47 -138 62 -201 31z"/>
<path d="M1900 3123 c-109 -41 -138 -174 -57 -261 95 -100 267 -32 269 106 0
64 -32 117 -89 146 -31 16 -93 20 -123 9z m104 -85 c65 -59 13 -173 -69 -152
-37 9 -57 39 -59 85 -1 33 5 45 27 65 35 30 69 31 101 2z"/>
<path d="M2161 3121 c-7 -4 -10 -61 -10 -154 l1 -147 39 0 39 0 0 91 c0 113
16 148 66 149 39 0 49 -26 51 -134 l2 -101 37 0 38 0 2 99 c1 90 4 101 24 118
30 24 67 23 80 -3 6 -11 11 -65 12 -120 l0 -99 39 0 39 0 0 110 c0 130 -13
170 -59 190 -39 16 -97 7 -125 -19 -21 -19 -21 -19 -49 5 -41 35 -120 30 -149
-11 -4 -6 -8 -2 -8 8 0 9 -3 18 -7 18 -31 5 -53 5 -62 0z"/>
<path d="M3220 3107 c-103 -69 -95 -229 14 -278 23 -10 53 -19 68 -19 45 0
101 28 125 62 20 29 21 33 7 41 -11 6 -20 3 -30 -12 -21 -30 -67 -51 -110 -51
-44 0 -104 53 -104 93 l0 25 108 0 c177 0 165 -2 158 30 -14 57 -28 79 -68
105 -54 35 -121 37 -168 4z m159 -48 c53 -53 45 -59 -79 -59 l-111 0 16 29
c21 42 53 61 101 61 34 0 49 -6 73 -31z"/>
<path d="M3873 3123 c-10 -3 -13 -44 -13 -154 0 -142 1 -149 20 -149 19 0 20
7 20 149 0 83 -3 152 -7 154 -5 2 -14 2 -20 0z"/>
<path d="M4030 3117 c-65 -30 -103 -108 -88 -182 22 -106 153 -159 239 -96 27
20 35 17 30 -12 -1 -5 8 -7 21 -5 21 3 22 6 21 148 -1 80 -2 148 -2 152 -1 3
-10 4 -21 1 -13 -4 -20 -14 -20 -32 -1 -23 -2 -24 -11 -8 -23 40 -115 59 -169
34z m135 -49 c38 -30 54 -71 45 -120 -26 -141 -230 -121 -230 22 0 38 23 84
52 104 33 23 100 20 133 -6z"/>
<path d="M4769 3123 c-1 -5 -2 -74 -3 -156 -1 -143 0 -147 20 -147 19 0 20 5
19 78 -1 130 21 192 70 192 24 0 49 22 38 33 -14 15 -53 6 -82 -19 -22 -18
-29 -21 -25 -9 4 10 1 21 -7 26 -17 11 -29 11 -30 2z"/>
<path d="M4984 3111 c-72 -44 -99 -131 -64 -208 26 -59 72 -88 140 -88 68 0
114 29 140 88 48 106 -27 227 -139 227 -28 0 -58 -8 -77 -19z m152 -55 c19
-19 35 -42 35 -52 1 -11 2 -26 3 -34 5 -52 -41 -108 -97 -117 -75 -12 -132 39
-131 118 1 74 43 117 118 118 30 1 45 -6 72 -33z"/>
<path d="M5263 3122 c-19 -12 -9 -211 11 -250 48 -93 219 -73 241 29 9 39 10
203 1 217 -3 6 -12 9 -19 6 -9 -3 -14 -34 -15 -107 -1 -56 -7 -112 -13 -124
-27 -51 -124 -55 -156 -6 -13 20 -17 49 -17 129 -1 101 -7 122 -33 106z"/>
<path d="M5588 3122 c-16 -3 -18 -21 -18 -207 1 -162 4 -204 14 -208 22 -9 26
2 26 80 0 40 3 73 7 73 4 0 17 -10 30 -22 19 -18 36 -22 83 -23 63 0 95 16
134 68 29 39 29 135 0 173 -53 72 -133 93 -203 53 -23 -12 -42 -27 -42 -33 -1
-6 -4 3 -8 19 -4 22 -11 30 -23 27z m194 -43 c56 -26 81 -103 54 -161 -58
-123 -244 -64 -223 71 13 79 96 124 169 90z"/>
</g>
</svg>
