<?xml version="1.0" encoding="utf-8"?>
<!-- Generator: Adobe Illustrator 22.0.1, SVG Export Plug-In . SVG Version: 6.00 Build 0)  -->
<svg version="1.1" id="Layer_1" xmlns="http://www.w3.org/2000/svg" xmlns:xlink="http://www.w3.org/1999/xlink" x="0px" y="0px"
	 viewBox="0 0 595 70.7" style="enable-background:new 0 0 595 70.7;" xml:space="preserve">
<style type="text/css">
	.st0{fill:#EE3425;}
	.st1{fill:#3D1A52;}
	.st2{fill:none;}
	.st3{fill:#004685;}
</style>
<path class="st0" d="M593.8,1085.3c0-40.7-31.5-77.6-92.6-77.6h-61.4v73.1h-80.1l-32.4,59.6l-33.9-59.6h-42.5
	c4.8-13.4,7.2-27.5,7.2-41.9v-0.6c0-33.7-13.1-65-36.9-88.2c-23.9-23.4-56.6-36.2-91.9-36.2s-68.1,13-92.2,36.5
	c-11.7,11.4-20.9,24.8-27.3,39.8c-6.6,15.4-9.9,31.8-9.9,48.7v0.6c0,33.7,13.1,65,36.9,88.2c23.9,23.4,56.9,36.2,92.3,36.2
	c31.4,0,60.5-10.3,83.6-29.2v145.7h70.6v-81.9l44,62.8l42.5-62.8v81.9h70.6v-112.8h59.1c61.4,0,94.5-34.1,94.5-80L593.8,1085.3z
	 M170.3,1039.5c0,21.8-14.1,42.3-40.9,42.3c-27.2,0-41.8-20.4-41.8-42.9v-0.6c0-21.8,14.5-42.9,41.6-42.9c27,0,41.2,20.7,41.2,43.5
	L170.3,1039.5L170.3,1039.5z M539.3,1087.1c0,19.6-15.3,28.2-33.5,28.2h-10.5v-56.8h10.3c18.3,0,33.6,8.6,33.6,28.2v0.4H539.3z"/>
<path class="st1" d="M575.5,573.8c-24.3,0-36.7-14.2-35.6-43.6c0.5-12.7,4.7-24.3,16.2-64.2c2.4-8.3,5.2-17.5,8.2-28
	c13.6-46.6,13.2-89-1.1-113.4c-5.5-9.4-12.8-15.4-21.1-17.3c-8.6-2-18.1,0.3-26.7,6.5c-10.2,7.3-28.1,26.8-32.8,74.7
	c-0.9,8.7-3.2,34.8-2.2,54.4c-12.7-8.6-27.2-12.9-43.4-12.9c-34.4,0-64.2,19.7-77.9,51.6c-0.1,0.2-0.1,0.4-0.2,0.6
	c0-0.2-0.1-0.3-0.1-0.5c-8.3-32.8-31.2-52.4-61.3-52.4h-0.2c-26.6,0.1-45.9,9.7-56.2,16.1v-77.6h-48.4v109.6
	c-15.2-31.9-46.8-48.3-78.1-48.3c-21.5,0-39.3,7.9-54.2,24.2v-20.6H14v246.4h46.3V595c14.2,13.1,34.3,21.2,54.2,21.2
	c35.9,0,64.3-18.9,78.1-49.3v44.4H241V510.8c0-3.1,0.1-10,1.4-13.1c3.8-10.5,19.2-24.7,44.5-24.7c19.9,0,27.3,11.8,27.3,43.7v94.7
	h48v-40c0.2,0.5,0.4,0.8,0.4,0.9c14.9,27.4,43.3,44.3,74.3,44.3c26.2,0,55.8-12.6,72.1-30.2c7,10.5,25.9,31,66.4,31h4.5v-43.6
	L575.5,573.8L575.5,573.8z M105.3,573.4c-24.9,0-46-22.7-46-49.6c0-29.2,19.8-51.2,46-51.2c30.3,0,46.6,26.4,46.6,51.2
	C151.9,553,132.7,573.4,105.3,573.4z M443.8,573.7c-22.9,0-46.1-17.3-46.1-50.4c0-29.7,19-50.4,46.1-50.4
	c22.5,0,46.4,17.7,46.4,50.4C490.2,556.1,466.3,573.7,443.8,573.7z M533,340.4c1.2-0.7,2.9-1.6,5-1.6c2.4,0,4.1,1.7,4.1,1.7
	c2.1,1.6,7.9,8.7-2,44.6c-7.4,27.1-14.6,49.9-19.1,62.9C514,413.5,520.1,348.3,533,340.4z"/>
<rect x="726" y="244.5" class="st2" width="415" height="79"/>
<text transform="matrix(1 0 0 1 726 255.1982)" class="st1" style="font-family:'InterFace-Bold'; font-size:16px;">RGB MASTER LOGO </text>
<text transform="matrix(1 0 0 1 726 274.3982)" class="st1" style="font-family:'InterFace-Bold'; font-size:16px;">R 61 / G 17 / B 82</text>
<text transform="matrix(1 0 0 1 726 293.5982)" class="st1" style="font-family:'InterFace-Bold'; font-size:16px;">#3D1152</text>
<g>
	<g>
		<path class="st3" d="M26.3,16.3c-3.8,0-7,1.3-9.5,4c-2.6,2.7-3.9,6-3.9,10.1c0,4.6,1.6,8.2,4.9,10.8c2.5,2.1,5.4,3.1,8.7,3.1
			c3.7,0,6.8-1.3,9.4-4c2.6-2.7,3.9-6,3.9-10c0-3.9-1.3-7.3-3.9-10C33.2,17.7,30.1,16.3,26.3,16.3 M26.4,8.8c5.8,0,10.8,2.1,15,6.3
			s6.3,9.3,6.3,15.4c0,6-2.1,11.1-6.2,15.2c-4.1,4.1-9.1,6.2-15,6.2c-6.2,0-11.3-2.1-15.3-6.4c-4.1-4.3-6.1-9.3-6.1-15.2
			c0-3.9,1-7.5,2.8-10.8c1.9-3.3,4.5-5.9,7.8-7.8C19,9.8,22.6,8.8,26.4,8.8z"/>
		<path class="st3" d="M51.8,20.6h7.6v3.5c1.3-1.4,2.8-2.5,4.4-3.2s3.3-1.1,5.2-1.1c1.9,0,3.6,0.5,5.2,1.4c1.5,0.9,2.8,2.3,3.7,4.1
			c1.2-1.8,2.7-3.1,4.5-4.1c1.8-0.9,3.7-1.4,5.8-1.4c2.2,0,4.1,0.5,5.7,1.5s2.8,2.3,3.5,3.9c0.7,1.6,1.1,4.2,1.1,7.9v17.7h-7.6V35.5
			c0-3.4-0.4-5.7-1.3-7c-0.9-1.2-2.2-1.8-3.9-1.8c-1.3,0-2.5,0.4-3.6,1.1c-1.1,0.7-1.8,1.8-2.3,3.1c-0.5,1.3-0.8,3.4-0.8,6.3v13.6
			h-7.6V36.2c0-2.7-0.2-4.7-0.6-5.9s-1-2.1-1.8-2.7c-0.8-0.6-1.8-0.9-2.9-0.9c-1.3,0-2.4,0.4-3.5,1.1c-1,0.8-1.8,1.8-2.3,3.2
			c-0.5,1.4-0.8,3.5-0.8,6.4v13.4h-7.6L51.8,20.6"/>
		<path class="st3" d="M103.2,20.6h7.6v3.1c1.7-1.4,3.3-2.4,4.7-3c1.4-0.6,2.9-0.8,4.3-0.8c3,0,5.6,1,7.7,3.1
			c1.8,1.8,2.7,4.4,2.7,7.9v20h-7.6V37.6c0-3.6-0.2-6-0.5-7.2s-0.9-2.1-1.7-2.7c-0.8-0.6-1.8-0.9-3-0.9c-1.5,0-2.9,0.5-4,1.5
			s-1.9,2.5-2.3,4.3c-0.2,0.9-0.3,3-0.3,6.1v12.2h-7.6L103.2,20.6"/>
		<path class="st3" d="M135.7,20.6h7.6v30.3h-7.6V20.6z M139.4,8.1c1.3,0,2.4,0.5,3.4,1.4c0.9,1,1.4,2.1,1.4,3.5s-0.5,2.5-1.4,3.5
			s-2,1.4-3.3,1.4s-2.5-0.5-3.4-1.5s-1.4-2.2-1.4-3.6c0-1.3,0.5-2.5,1.4-3.4C137,8.6,138.1,8.1,139.4,8.1z"/>
		<path class="st3" d="M178.2,26.6l-6.3,3.4c-1.2-1.2-2.4-2.1-3.5-2.6c-1.2-0.5-2.5-0.7-4.1-0.7c-2.8,0-5.1,0.9-6.9,2.6
			c-1.8,1.7-2.6,3.9-2.6,6.6c0,2.6,0.8,4.7,2.5,6.3s3.9,2.5,6.6,2.5c3.4,0,6-1.2,7.9-3.5l6,4.1c-3.2,4.2-7.8,6.3-13.7,6.3
			c-5.3,0-9.5-1.6-12.5-4.7c-3-3.1-4.5-6.8-4.5-11.1c0-2.9,0.7-5.6,2.2-8.1s3.5-4.4,6.1-5.8c2.6-1.4,5.6-2.1,8.8-2.1
			c3,0,5.7,0.6,8.1,1.8C174.7,22.7,176.7,24.4,178.2,26.6"/>
		<path class="st3" d="M195.4,26.9c-2.3,0-4.3,0.8-5.9,2.5c-1.6,1.7-2.3,3.8-2.3,6.3c0,2.6,0.8,4.8,2.3,6.4c1.5,1.6,3.5,2.5,5.9,2.5
			s4.3-0.8,5.9-2.5c1.6-1.7,2.4-3.8,2.4-6.4c0-2.6-0.8-4.7-2.3-6.4C199.7,27.7,197.8,26.9,195.4,26.9 M195.2,19.8
			c2.9,0,5.6,0.7,8.1,2.1c2.5,1.4,4.5,3.4,5.9,5.8c1.4,2.4,2.1,5.1,2.1,7.9c0,2.9-0.7,5.5-2.1,8c-1.4,2.5-3.4,4.4-5.8,5.8
			c-2.5,1.4-5.2,2.1-8.1,2.1c-4.3,0-8.1-1.5-11.1-4.6c-3.1-3.1-4.6-6.8-4.6-11.2c0-4.7,1.7-8.7,5.2-11.8
			C187.7,21.2,191.2,19.8,195.2,19.8z"/>
		<path class="st3" d="M215.2,20.6h7.6v3.5c1.3-1.4,2.8-2.5,4.4-3.2c1.6-0.7,3.3-1.1,5.2-1.1s3.6,0.5,5.2,1.4
			c1.5,0.9,2.8,2.3,3.7,4.1c1.2-1.8,2.7-3.1,4.5-4.1c1.8-0.9,3.7-1.4,5.8-1.4c2.2,0,4.1,0.5,5.7,1.5s2.8,2.3,3.5,3.9
			c0.7,1.6,1.1,4.2,1.1,7.9v17.7h-7.6V35.5c0-3.4-0.4-5.7-1.3-7c-0.9-1.2-2.2-1.8-3.9-1.8c-1.3,0-2.5,0.4-3.6,1.1
			c-1.1,0.7-1.8,1.8-2.3,3.1c-0.5,1.3-0.8,3.4-0.8,6.3v13.6h-7.6V36.2c0-2.7-0.2-4.7-0.6-5.9c-0.4-1.2-1-2.1-1.8-2.7
			c-0.8-0.6-1.8-0.9-2.9-0.9c-1.3,0-2.4,0.4-3.5,1.1c-1,0.8-1.8,1.8-2.3,3.2c-0.5,1.4-0.8,3.5-0.8,6.4v13.4h-7.6L215.2,20.6"/>
		<polyline class="st3" points="266,50.9 271.8,9.9 272.6,9.9 289.1,43.5 305.7,9.9 306.4,9.9 312.2,50.9 308.3,50.9 304.2,21.5 
			289.6,50.9 288.5,50.9 274,21.3 269.9,50.9 266,50.9 		"/>
		<path class="st3" d="M341.6,32.7c-0.5-2.1-1.3-3.7-2.3-5c-1-1.2-2.3-2.2-3.9-3s-3.3-1.1-5.1-1.1c-3,0-5.5,1-7.6,2.9
			c-1.6,1.4-2.7,3.5-3.5,6.2L341.6,32.7 M341.6,40.8l3.3,1.7c-1.1,2.1-2.3,3.8-3.7,5.1c-1.4,1.3-3,2.3-4.8,3s-3.8,1-6,1
			c-4.9,0-8.8-1.6-11.6-4.8c-2.8-3.2-4.2-6.9-4.2-11c0-3.8,1.2-7.3,3.5-10.3c3-3.8,7-5.7,12-5.7c5.2,0,9.3,2,12.4,5.9
			c2.2,2.8,3.3,6.2,3.3,10.4h-27.2c0.1,3.5,1.2,6.4,3.4,8.6c2.2,2.2,4.8,3.4,8,3.4c1.5,0,3-0.3,4.5-0.8s2.7-1.2,3.7-2.1
			C339.3,44.2,340.4,42.8,341.6,40.8z"/>
		<path class="st3" d="M364.9,23.6c-2.2,0-4.1,0.5-6,1.6c-1.8,1.1-3.3,2.6-4.3,4.5c-1.1,1.9-1.6,4-1.6,6.1s0.5,4.2,1.6,6.1
			c1.1,2,2.5,3.5,4.4,4.5c1.8,1.1,3.8,1.6,5.9,1.6s4.1-0.5,6-1.6s3.4-2.5,4.4-4.4c1-1.8,1.5-3.9,1.5-6.2c0-3.5-1.1-6.4-3.4-8.8
			C371.1,24.7,368.3,23.6,364.9,23.6 M380.6,8.8v42h-3.9v-5.2c-1.6,2-3.5,3.5-5.5,4.5s-4.2,1.5-6.7,1.5c-4.3,0-7.9-1.6-11-4.7
			c-3-3.1-4.5-6.9-4.5-11.3c0-4.4,1.5-8.1,4.6-11.2c3.1-3.1,6.7-4.6,11-4.6c2.5,0,4.7,0.5,6.7,1.6s3.8,2.7,5.3,4.8V8.9h4V8.8z"/>
		<path class="st3" d="M386.1,20.6h3.9v30.3h-3.9V20.6z M388.1,8.1c0.9,0,1.7,0.3,2.4,1c0.7,0.6,1,1.4,1,2.3c0,0.9-0.3,1.6-1,2.3
			c-0.7,0.6-1.5,1-2.4,1s-1.7-0.3-2.4-1c-0.7-0.6-1-1.4-1-2.3c0-0.9,0.3-1.7,1-2.3C386.4,8.4,387.1,8.1,388.1,8.1z"/>
		<path class="st3" d="M409.6,23.6c-2.1,0-4.1,0.5-6,1.6c-1.8,1.1-3.3,2.6-4.3,4.5c-1.1,1.9-1.6,4-1.6,6.1s0.5,4.2,1.6,6.1
			c1.1,2,2.5,3.5,4.4,4.5c1.8,1.1,3.8,1.6,5.9,1.6s4.1-0.5,6-1.6s3.4-2.5,4.4-4.4c1-1.8,1.5-3.9,1.5-6.2c0-3.5-1.1-6.4-3.4-8.8
			C415.8,24.7,413,23.6,409.6,23.6 M425.3,20.6v30.3h-3.9v-5.2c-1.6,2-3.5,3.5-5.5,4.5s-4.2,1.5-6.7,1.5c-4.3,0-7.9-1.6-11-4.7
			c-3-3.1-4.5-6.9-4.5-11.3c0-4.4,1.5-8.1,4.6-11.2c3.1-3.1,6.7-4.6,11-4.6c2.5,0,4.7,0.5,6.7,1.6c2,1,3.8,2.6,5.3,4.7v-5.6H425.3z"
			/>
		<path class="st3" d="M471.3,16.6l-3.2,3c-2.3-2.3-4.8-3.9-7.5-5.1c-2.7-1.2-5.4-1.7-8-1.7c-3.2,0-6.3,0.8-9.2,2.4
			c-2.9,1.6-5.2,3.7-6.8,6.4c-1.6,2.7-2.4,5.6-2.4,8.6c0,3.1,0.8,6,2.5,8.8s4,5,6.9,6.6s6.1,2.4,9.6,2.4c4.2,0,7.8-1.2,10.7-3.6
			c2.9-2.4,4.7-5.4,5.2-9.2H456v-4h17.7c0,6.4-1.9,11.4-5.6,15.1c-3.7,3.7-8.7,5.6-15,5.6c-7.6,0-13.6-2.6-18-7.7
			c-3.4-4-5.1-8.6-5.1-13.8c0-3.9,1-7.5,2.9-10.8c2-3.4,4.6-6,8-7.8c3.4-1.9,7.2-2.8,11.5-2.8c3.5,0,6.7,0.6,9.8,1.8
			C465.4,11.9,468.4,13.9,471.3,16.6"/>
		<path class="st3" d="M476.6,20.6h3.9V25c1.2-1.7,2.5-3,3.8-3.9c1.3-0.8,2.7-1.3,4.1-1.3c1.1,0,2.2,0.3,3.5,1l-2,3.3
			c-0.8-0.4-1.5-0.5-2.1-0.5c-1.3,0-2.6,0.5-3.8,1.6c-1.2,1.1-2.1,2.7-2.8,5c-0.5,1.7-0.7,5.2-0.7,10.5v10.2h-3.9V20.6"/>
		<path class="st3" d="M505.9,23.6c-3.2,0-6,1.2-8.3,3.6c-2.3,2.4-3.5,5.3-3.5,8.7c0,2.2,0.5,4.2,1.6,6.1c1.1,1.9,2.5,3.4,4.3,4.4
			s3.8,1.6,5.9,1.6s4.1-0.5,5.9-1.6c1.8-1,3.2-2.5,4.3-4.4s1.6-3.9,1.6-6.1c0-3.4-1.2-6.3-3.5-8.7C511.8,24.8,509.1,23.6,505.9,23.6
			 M505.9,19.8c4.6,0,8.5,1.7,11.6,5.1c2.8,3.1,4.2,6.7,4.2,10.9s-1.5,7.9-4.4,11.1c-2.9,3.2-6.7,4.7-11.3,4.7
			c-4.6,0-8.4-1.6-11.4-4.7c-2.9-3.2-4.4-6.9-4.4-11.1c0-4.2,1.4-7.8,4.2-10.9C497.4,21.5,501.2,19.8,505.9,19.8z"/>
		<g>
			<path class="st3" d="M525.5,20.6h3.9v14.2c0,3.5,0.2,5.8,0.6,7.1c0.6,1.9,1.6,3.3,3.2,4.4c1.6,1.1,3.5,1.6,5.7,1.6
				s4.1-0.5,5.6-1.6c1.5-1,2.6-2.4,3.2-4.1c0.4-1.2,0.6-3.6,0.6-7.4V20.6h3.9v14.9c0,4.2-0.5,7.3-1.5,9.4c-1,2.1-2.5,3.8-4.4,5
				c-2,1.2-4.5,1.8-7.4,1.8c-3,0-5.5-0.6-7.5-1.8s-3.5-2.9-4.5-5s-1.5-5.4-1.5-9.7V20.6"/>
			<path class="st3" d="M573,23.6c-3.3,0-6.2,1.2-8.5,3.5c-2.3,2.4-3.4,5.3-3.4,8.8c0,2.3,0.5,4.4,1.5,6.2s2.5,3.3,4.4,4.4
				c1.9,1.1,3.9,1.6,6,1.6s4-0.5,5.9-1.6c1.8-1.1,3.3-2.6,4.4-4.5c1.1-1.9,1.6-4,1.6-6.1c0-2.2-0.5-4.2-1.6-6.1
				c-1.1-1.9-2.5-3.4-4.3-4.5C577.1,24.1,575.1,23.6,573,23.6 M557.3,20.6h3.9v5.6c1.5-2.1,3.3-3.7,5.3-4.7s4.2-1.6,6.7-1.6
				c4.3,0,8,1.5,11.1,4.6s4.6,6.8,4.6,11.2s-1.5,8.2-4.5,11.3s-6.7,4.7-11,4.7c-2.4,0-4.6-0.5-6.7-1.5c-2-1-3.8-2.5-5.5-4.5V62h-3.9
				L557.3,20.6L557.3,20.6z"/>
		</g>
	</g>
</g>
</svg>
