<?xml version="1.0" encoding="utf-8"?>
<!-- Generator: Adobe Illustrator 22.0.1, SVG Export Plug-In . SVG Version: 6.00 Build 0)  -->
<svg version="1.1" id="Layer_1" xmlns="http://www.w3.org/2000/svg" xmlns:xlink="http://www.w3.org/1999/xlink" x="0px" y="0px"
	 viewBox="0 0 612 396" style="enable-background:new 0 0 612 396;" xml:space="preserve">
<style type="text/css">
	.Arched_x0020_Green{fill:url(#SVGID_1_);stroke:#FFFFFF;stroke-width:0.25;stroke-miterlimit:1;}
	.st0{fill:#EE3425;}
	.st1{fill:#3D1A52;}
	.st2{fill:#004685;}
</style>
<linearGradient id="SVGID_1_" gradientUnits="userSpaceOnUse" x1="0" y1="0" x2="0.7071" y2="-0.7071">
	<stop  offset="0" style="stop-color:#20AC4B"/>
	<stop  offset="0.9831" style="stop-color:#19361A"/>
</linearGradient>
<path class="st0" d="M602.8,790.4c0-40.7-31.5-77.6-92.6-77.6h-61.4v73.1h-80.1l-32.4,59.6l-33.9-59.6h-42.5
	c4.8-13.4,7.2-27.5,7.2-41.9v-0.6c0-33.7-13.1-65-36.9-88.2c-23.9-23.4-56.6-36.2-91.9-36.2c-35.3,0-68.1,13-92.2,36.5
	c-11.7,11.4-20.9,24.8-27.3,39.8C12.4,710.6,9.1,727,9.1,744v0.6c0,33.7,13.1,65,36.9,88.2c23.9,23.4,56.9,36.2,92.3,36.2
	c31.4,0,60.5-10.3,83.6-29.2v145.7h70.6v-81.9l44,62.8l42.5-62.8v81.9h70.6V872.8h59.1c61.4,0,94.5-34.1,94.5-80L602.8,790.4z
	 M179.3,744.6c0,21.8-14.1,42.3-40.9,42.3c-27.2,0-41.8-20.4-41.8-42.9v-0.6c0-21.8,14.5-42.9,41.6-42.9c27,0,41.2,20.7,41.2,43.5
	V744.6z M548.3,792.2c0,19.6-15.3,28.2-33.5,28.2h-10.5v-56.8h10.3c18.3,0,33.6,8.6,33.6,28.2V792.2z"/>
<path class="st1" d="M584.5,278.9c-24.3,0-36.7-14.2-35.6-43.6c0.5-12.7,4.7-24.3,16.2-64.2c2.4-8.3,5.2-17.5,8.2-28
	c13.6-46.6,13.2-89-1.1-113.4c-5.5-9.4-12.8-15.4-21.1-17.3c-8.6-2-18.1,0.3-26.7,6.5c-10.2,7.3-28.1,26.8-32.8,74.7
	c-0.9,8.7-3.2,34.8-2.2,54.4c-12.7-8.6-27.2-12.9-43.4-12.9c-34.4,0-64.2,19.7-77.9,51.6c-0.1,0.2-0.1,0.4-0.2,0.6
	c0-0.2-0.1-0.3-0.1-0.5c-8.3-32.8-31.2-52.4-61.3-52.4h-0.2c-26.6,0.1-45.9,9.7-56.2,16.1V72.9h-48.4v109.6
	c-15.2-31.9-46.8-48.3-78.1-48.3c-21.5,0-39.3,7.9-54.2,24.2v-20.6H23v246.4h46.3v-84.1c14.2,13.1,34.3,21.2,54.2,21.2
	c35.9,0,64.3-18.9,78.1-49.3v44.4H250V215.9c0-3.1,0.1-10,1.4-13.1c3.8-10.5,19.2-24.7,44.5-24.7c19.9,0,27.3,11.8,27.3,43.7v94.7
	h48v-40c0.2,0.5,0.4,0.8,0.4,0.9c14.9,27.4,43.3,44.3,74.3,44.3c26.2,0,55.8-12.6,72.1-30.2c7,10.5,25.9,31,66.4,31h4.5l0-43.6
	H584.5z M114.3,278.5c-24.9,0-46-22.7-46-49.6c0-29.2,19.8-51.2,46-51.2c30.3,0,46.6,26.4,46.6,51.2
	C160.9,258.1,141.7,278.5,114.3,278.5z M452.8,278.8c-22.9,0-46.1-17.3-46.1-50.4c0-29.7,19-50.4,46.1-50.4
	c22.5,0,46.4,17.7,46.4,50.4C499.2,261.2,475.3,278.8,452.8,278.8z M542,45.5c1.2-0.7,2.9-1.6,5-1.6c2.4,0,4.1,1.7,4.1,1.7
	c2.1,1.6,7.9,8.7-2,44.6c-7.4,27.1-14.6,49.9-19.1,62.9C523,118.6,529.1,53.4,542,45.5z"/>
<rect x="735" y="407.5" style="fill:none;" width="415" height="79"/>
<text transform="matrix(1 0 0 1 735 418.1982)"><tspan x="0" y="0" class="st1" style="font-family:'InterFace-Bold'; font-size:16px;">RGB MASTER LOGO </tspan><tspan x="0" y="19.2" class="st1" style="font-family:'InterFace-Bold'; font-size:16px;">R 61 / G 17 / B 82</tspan><tspan x="0" y="38.4" class="st1" style="font-family:'InterFace-Bold'; font-size:16px;">#3D1152</tspan></text>
<g>
	<g>
		<path class="st2" d="M35.3,550c-3.8,0-7,1.3-9.5,4c-2.6,2.7-3.9,6-3.9,10.1c0,4.6,1.6,8.2,4.9,10.8c2.5,2.1,5.4,3.1,8.7,3.1
			c3.7,0,6.8-1.3,9.4-4c2.6-2.7,3.9-6,3.9-10c0-3.9-1.3-7.3-3.9-10C42.2,551.4,39.1,550,35.3,550 M35.4,542.5c5.8,0,10.8,2.1,15,6.3
			c4.2,4.2,6.3,9.3,6.3,15.4c0,6-2.1,11.1-6.2,15.2c-4.1,4.1-9.1,6.2-15,6.2c-6.2,0-11.3-2.1-15.3-6.4c-4.1-4.3-6.1-9.3-6.1-15.2
			c0-3.9,1-7.5,2.8-10.8c1.9-3.3,4.5-5.9,7.8-7.8C28,543.5,31.6,542.5,35.4,542.5z"/>
		<path class="st2" d="M60.8,554.2h7.6v3.5c1.3-1.4,2.8-2.5,4.4-3.2c1.6-0.7,3.3-1.1,5.2-1.1c1.9,0,3.6,0.5,5.2,1.4
			c1.5,0.9,2.8,2.3,3.7,4.1c1.2-1.8,2.7-3.1,4.5-4.1c1.8-0.9,3.7-1.4,5.8-1.4c2.2,0,4.1,0.5,5.7,1.5c1.6,1,2.8,2.3,3.5,3.9
			c0.7,1.6,1.1,4.2,1.1,7.9v17.7h-7.6v-15.3c0-3.4-0.4-5.7-1.3-7c-0.9-1.2-2.2-1.8-3.9-1.8c-1.3,0-2.5,0.4-3.6,1.1
			c-1.1,0.7-1.8,1.8-2.3,3.1c-0.5,1.3-0.8,3.4-0.8,6.3v13.6h-7.6v-14.6c0-2.7-0.2-4.7-0.6-5.9c-0.4-1.2-1-2.1-1.8-2.7
			c-0.8-0.6-1.8-0.9-2.9-0.9c-1.3,0-2.4,0.4-3.5,1.1c-1,0.8-1.8,1.8-2.3,3.2c-0.5,1.4-0.8,3.5-0.8,6.4v13.4h-7.6V554.2"/>
		<path class="st2" d="M112.2,554.2h7.6v3.1c1.7-1.4,3.3-2.4,4.7-3c1.4-0.6,2.9-0.8,4.3-0.8c3,0,5.6,1,7.7,3.1
			c1.8,1.8,2.7,4.4,2.7,7.9v20h-7.6v-13.3c0-3.6-0.2-6-0.5-7.2c-0.3-1.2-0.9-2.1-1.7-2.7c-0.8-0.6-1.8-0.9-3-0.9
			c-1.5,0-2.9,0.5-4,1.5c-1.1,1-1.9,2.5-2.3,4.3c-0.2,0.9-0.3,3-0.3,6.1v12.2h-7.6V554.2"/>
		<path class="st2" d="M144.7,554.2h7.6v30.3h-7.6V554.2z M148.4,541.7c1.3,0,2.4,0.5,3.4,1.4c0.9,1,1.4,2.1,1.4,3.5
			c0,1.4-0.5,2.5-1.4,3.5c-0.9,1-2,1.4-3.3,1.4c-1.3,0-2.5-0.5-3.4-1.5c-0.9-1-1.4-2.2-1.4-3.6c0-1.3,0.5-2.5,1.4-3.4
			C146,542.2,147.1,541.7,148.4,541.7z"/>
		<path class="st2" d="M187.2,560.3l-6.3,3.4c-1.2-1.2-2.4-2.1-3.5-2.6c-1.2-0.5-2.5-0.7-4.1-0.7c-2.8,0-5.1,0.9-6.9,2.6
			c-1.8,1.7-2.6,3.9-2.6,6.6c0,2.6,0.8,4.7,2.5,6.3c1.7,1.6,3.9,2.5,6.6,2.5c3.4,0,6-1.2,7.9-3.5l6,4.1c-3.2,4.2-7.8,6.3-13.7,6.3
			c-5.3,0-9.5-1.6-12.5-4.7c-3-3.1-4.5-6.8-4.5-11.1c0-2.9,0.7-5.6,2.2-8.1c1.5-2.5,3.5-4.4,6.1-5.8c2.6-1.4,5.6-2.1,8.8-2.1
			c3,0,5.7,0.6,8.1,1.8C183.7,556.4,185.7,558.1,187.2,560.3"/>
		<path class="st2" d="M204.4,560.6c-2.3,0-4.3,0.8-5.9,2.5c-1.6,1.7-2.3,3.8-2.3,6.3c0,2.6,0.8,4.8,2.3,6.4
			c1.5,1.6,3.5,2.5,5.9,2.5c2.4,0,4.3-0.8,5.9-2.5c1.6-1.7,2.4-3.8,2.4-6.4c0-2.6-0.8-4.7-2.3-6.4
			C208.7,561.4,206.8,560.6,204.4,560.6 M204.2,553.5c2.9,0,5.6,0.7,8.1,2.1c2.5,1.4,4.5,3.4,5.9,5.8c1.4,2.4,2.1,5.1,2.1,7.9
			c0,2.9-0.7,5.5-2.1,8c-1.4,2.5-3.4,4.4-5.8,5.8c-2.5,1.4-5.2,2.1-8.1,2.1c-4.3,0-8.1-1.5-11.1-4.6c-3.1-3.1-4.6-6.8-4.6-11.2
			c0-4.7,1.7-8.7,5.2-11.8C196.7,554.8,200.2,553.5,204.2,553.5z"/>
		<path class="st2" d="M224.2,554.2h7.6v3.5c1.3-1.4,2.8-2.5,4.4-3.2c1.6-0.7,3.3-1.1,5.2-1.1c1.9,0,3.6,0.5,5.2,1.4
			c1.5,0.9,2.8,2.3,3.7,4.1c1.2-1.8,2.7-3.1,4.5-4.1c1.8-0.9,3.7-1.4,5.8-1.4c2.2,0,4.1,0.5,5.7,1.5c1.6,1,2.8,2.3,3.5,3.9
			c0.7,1.6,1.1,4.2,1.1,7.9v17.7h-7.6v-15.3c0-3.4-0.4-5.7-1.3-7c-0.9-1.2-2.2-1.8-3.9-1.8c-1.3,0-2.5,0.4-3.6,1.1
			c-1.1,0.7-1.8,1.8-2.3,3.1c-0.5,1.3-0.8,3.4-0.8,6.3v13.6h-7.6v-14.6c0-2.7-0.2-4.7-0.6-5.9c-0.4-1.2-1-2.1-1.8-2.7
			c-0.8-0.6-1.8-0.9-2.9-0.9c-1.3,0-2.4,0.4-3.5,1.1c-1,0.8-1.8,1.8-2.3,3.2c-0.5,1.4-0.8,3.5-0.8,6.4v13.4h-7.6V554.2"/>
		<polyline class="st2" points="275,584.5 280.8,543.5 281.6,543.5 298.1,577.2 314.7,543.5 315.4,543.5 321.2,584.5 317.3,584.5 
			313.2,555.2 298.6,584.5 297.5,584.5 283,555 278.9,584.5 275,584.5 		"/>
		<path class="st2" d="M350.6,566.3c-0.5-2.1-1.3-3.7-2.3-5c-1-1.2-2.3-2.2-3.9-3c-1.6-0.8-3.3-1.1-5.1-1.1c-3,0-5.5,1-7.6,2.9
			c-1.6,1.4-2.7,3.5-3.5,6.2H350.6 M350.6,574.5l3.3,1.7c-1.1,2.1-2.3,3.8-3.7,5.1c-1.4,1.3-3,2.3-4.8,3c-1.8,0.7-3.8,1-6,1
			c-4.9,0-8.8-1.6-11.6-4.8c-2.8-3.2-4.2-6.9-4.2-11c0-3.8,1.2-7.3,3.5-10.3c3-3.8,7-5.7,12-5.7c5.2,0,9.3,2,12.4,5.9
			c2.2,2.8,3.3,6.2,3.3,10.4h-27.2c0.1,3.5,1.2,6.4,3.4,8.6c2.2,2.2,4.8,3.4,8,3.4c1.5,0,3-0.3,4.5-0.8c1.5-0.5,2.7-1.2,3.7-2.1
			C348.3,577.9,349.4,576.5,350.6,574.5z"/>
		<path class="st2" d="M373.9,557.2c-2.2,0-4.1,0.5-6,1.6c-1.8,1.1-3.3,2.6-4.3,4.5c-1.1,1.9-1.6,4-1.6,6.1c0,2.1,0.5,4.2,1.6,6.1
			c1.1,2,2.5,3.5,4.4,4.5c1.8,1.1,3.8,1.6,5.9,1.6c2.1,0,4.1-0.5,6-1.6c1.9-1.1,3.4-2.5,4.4-4.4c1-1.8,1.5-3.9,1.5-6.2
			c0-3.5-1.1-6.4-3.4-8.8C380.1,558.4,377.3,557.2,373.9,557.2 M389.6,542.5v42h-3.9v-5.2c-1.6,2-3.5,3.5-5.5,4.5
			c-2,1-4.2,1.5-6.7,1.5c-4.3,0-7.9-1.6-11-4.7c-3-3.1-4.5-6.9-4.5-11.3c0-4.4,1.5-8.1,4.6-11.2c3.1-3.1,6.7-4.6,11-4.6
			c2.5,0,4.7,0.5,6.7,1.6c2,1.1,3.8,2.7,5.3,4.8v-17.3H389.6z"/>
		<path class="st2" d="M395.1,554.2h3.9v30.3h-3.9V554.2z M397.1,541.7c0.9,0,1.7,0.3,2.4,1c0.7,0.6,1,1.4,1,2.3
			c0,0.9-0.3,1.6-1,2.3c-0.7,0.6-1.5,1-2.4,1c-0.9,0-1.7-0.3-2.4-1c-0.7-0.6-1-1.4-1-2.3c0-0.9,0.3-1.7,1-2.3
			C395.4,542.1,396.1,541.7,397.1,541.7z"/>
		<path class="st2" d="M418.6,557.2c-2.1,0-4.1,0.5-6,1.6c-1.8,1.1-3.3,2.6-4.3,4.5c-1.1,1.9-1.6,4-1.6,6.1c0,2.1,0.5,4.2,1.6,6.1
			c1.1,2,2.5,3.5,4.4,4.5c1.8,1.1,3.8,1.6,5.9,1.6c2.1,0,4.1-0.5,6-1.6c1.9-1.1,3.4-2.5,4.4-4.4c1-1.8,1.5-3.9,1.5-6.2
			c0-3.5-1.1-6.4-3.4-8.8C424.8,558.4,422,557.2,418.6,557.2 M434.3,554.2v30.3h-3.9v-5.2c-1.6,2-3.5,3.5-5.5,4.5
			c-2,1-4.2,1.5-6.7,1.5c-4.3,0-7.9-1.6-11-4.7c-3-3.1-4.5-6.9-4.5-11.3c0-4.4,1.5-8.1,4.6-11.2c3.1-3.1,6.7-4.6,11-4.6
			c2.5,0,4.7,0.5,6.7,1.6c2,1,3.8,2.6,5.3,4.7v-5.6H434.3z"/>
		<path class="st2" d="M480.3,550.3l-3.2,3c-2.3-2.3-4.8-3.9-7.5-5.1c-2.7-1.2-5.4-1.7-8-1.7c-3.2,0-6.3,0.8-9.2,2.4
			c-2.9,1.6-5.2,3.7-6.8,6.4c-1.6,2.7-2.4,5.6-2.4,8.6c0,3.1,0.8,6,2.5,8.8c1.7,2.8,4,5,6.9,6.6c2.9,1.6,6.1,2.4,9.6,2.4
			c4.2,0,7.8-1.2,10.7-3.6c2.9-2.4,4.7-5.4,5.2-9.2H465v-4h17.7c0,6.4-1.9,11.4-5.6,15.1c-3.7,3.7-8.7,5.6-15,5.6
			c-7.6,0-13.6-2.6-18-7.7c-3.4-4-5.1-8.6-5.1-13.8c0-3.9,1-7.5,2.9-10.8c2-3.4,4.6-6,8-7.8c3.4-1.9,7.2-2.8,11.5-2.8
			c3.5,0,6.7,0.6,9.8,1.8C474.4,545.6,477.4,547.6,480.3,550.3"/>
		<path class="st2" d="M485.6,554.2h3.9v4.4c1.2-1.7,2.5-3,3.8-3.9c1.3-0.8,2.7-1.3,4.1-1.3c1.1,0,2.2,0.3,3.5,1l-2,3.3
			c-0.8-0.4-1.5-0.5-2.1-0.5c-1.3,0-2.6,0.5-3.8,1.6c-1.2,1.1-2.1,2.7-2.8,5c-0.5,1.7-0.7,5.2-0.7,10.5v10.2h-3.9V554.2"/>
		<path class="st2" d="M514.9,557.3c-3.2,0-6,1.2-8.3,3.6c-2.3,2.4-3.5,5.3-3.5,8.7c0,2.2,0.5,4.2,1.6,6.1c1.1,1.9,2.5,3.4,4.3,4.4
			c1.8,1,3.8,1.6,5.9,1.6c2.1,0,4.1-0.5,5.9-1.6c1.8-1,3.2-2.5,4.3-4.4c1.1-1.9,1.6-3.9,1.6-6.1c0-3.4-1.2-6.3-3.5-8.7
			C520.8,558.5,518.1,557.3,514.9,557.3 M514.9,553.5c4.6,0,8.5,1.7,11.6,5.1c2.8,3.1,4.2,6.7,4.2,10.9c0,4.2-1.5,7.9-4.4,11.1
			c-2.9,3.2-6.7,4.7-11.3,4.7c-4.6,0-8.4-1.6-11.4-4.7c-2.9-3.2-4.4-6.9-4.4-11.1c0-4.2,1.4-7.8,4.2-10.9
			C506.4,555.2,510.2,553.5,514.9,553.5z"/>
		<g>
			<path class="st2" d="M534.5,554.2h3.9v14.2c0,3.5,0.2,5.8,0.6,7.1c0.6,1.9,1.6,3.3,3.2,4.4c1.6,1.1,3.5,1.6,5.7,1.6
				c2.2,0,4.1-0.5,5.6-1.6c1.5-1,2.6-2.4,3.2-4.1c0.4-1.2,0.6-3.6,0.6-7.4v-14.2h3.9v14.9c0,4.2-0.5,7.3-1.5,9.4
				c-1,2.1-2.5,3.8-4.4,5c-2,1.2-4.5,1.8-7.4,1.8c-3,0-5.5-0.6-7.5-1.8c-2-1.2-3.5-2.9-4.5-5c-1-2.1-1.5-5.4-1.5-9.7V554.2"/>
			<path class="st2" d="M582,557.2c-3.3,0-6.2,1.2-8.5,3.5c-2.3,2.4-3.4,5.3-3.4,8.8c0,2.3,0.5,4.4,1.5,6.2c1,1.8,2.5,3.3,4.4,4.4
				c1.9,1.1,3.9,1.6,6,1.6c2.1,0,4-0.5,5.9-1.6c1.8-1.1,3.3-2.6,4.4-4.5c1.1-1.9,1.6-4,1.6-6.1c0-2.2-0.5-4.2-1.6-6.1
				c-1.1-1.9-2.5-3.4-4.3-4.5C586.1,557.8,584.1,557.2,582,557.2 M566.3,554.2h3.9v5.6c1.5-2.1,3.3-3.7,5.3-4.7c2-1,4.2-1.6,6.7-1.6
				c4.3,0,8,1.5,11.1,4.6c3.1,3.1,4.6,6.8,4.6,11.2c0,4.4-1.5,8.2-4.5,11.3c-3,3.1-6.7,4.7-11,4.7c-2.4,0-4.6-0.5-6.7-1.5
				c-2-1-3.8-2.5-5.5-4.5v16.3h-3.9V554.2z"/>
		</g>
	</g>
</g>
</svg>
